<svg xmlns="http://www.w3.org/2000/svg" width="189.467" height="194.341" viewBox="0 0 189.467 194.341">
  <path id="lily-pad" d="M-771.811,169.4h0a87.7,87.7,0,0,1-26.382-11.317,87.228,87.228,0,0,1-20.97-18.8,85.229,85.229,0,0,1-13.84-24.6A84.443,84.443,0,0,1-838,85.984a84.173,84.173,0,0,1,6.876-33.469,85.635,85.635,0,0,1,18.752-27.331A87.309,87.309,0,0,1-784.559,6.757,88.276,88.276,0,0,1-750.5,0a88.28,88.28,0,0,1,34.06,6.757,87.312,87.312,0,0,1,27.813,18.427,85.625,85.625,0,0,1,18.752,27.331A84.168,84.168,0,0,1-663,85.984a84.439,84.439,0,0,1-4.995,28.706,85.219,85.219,0,0,1-13.841,24.6,87.218,87.218,0,0,1-20.97,18.8A87.668,87.668,0,0,1-729.19,169.4L-750.5,133.4l-21.31,36.005Z" transform="translate(102.126 -658.058) rotate(-83)" fill="#3d9a39"/>
</svg>
